
        <svg xmlns="http://www.w3.org/2000/svg" xmlns:xlink="http://www.w3.org/1999/xlink" version="1.1" width="3176.470588235294" height="2003.7880772009428" viewBox="0 0 3176.470588235294 2003.7880772009428">
			
			<g transform="scale(8.823529411764707) translate(10, 10)">
				<defs id="SvgjsDefs1349"/><g id="SvgjsG1350" featureKey="symbolFeature-0" transform="matrix(0.013087959245691142,0,0,0.013087959245691142,104.621062879671,-7.839902472265496)" fill="#000"><defs xmlns="http://www.w3.org/2000/svg"/><g xmlns="http://www.w3.org/2000/svg"><path class="fil0" d="M3525 7917l553 -3604c-399,-309 -270,-893 208,-1046l-353 -651 -599 0c-115,0 -204,-92 -199,-217l-2 -1598c-1,-184 228,-269 349,-131l0 -1 345 395c0,-535 -26,-460 824,-460 110,0 200,90 200,200l0 606 297 0c0,-925 -120,-806 821,-806 246,0 200,288 200,470l348 -404c120,-138 354,-56 350,138l-2 1608c0,110 -89,199 -199,199l0 1 -477 0 -383 688c412,202 480,730 113,1012l467 3601c569,0 1001,-80 1001,570 541,41 521,273 521,714 0,110 -89,199 -199,199l0 1 -5418 0c-137,0 -199,-102 -199,-238 -1,-421 -1,-637 521,-676 0,-615 372,-570 912,-570zm935 -3462l-531 3462 2056 0 -449 -3462 -1076 0zm3037 4546c-24,-83 -97,-121 -310,-121l-4374 0c-213,0 -286,38 -310,121l4994 0zm-2109 -5766l345 -619 -1345 0 336 619 664 0zm-2296 5082c-101,0 -79,76 -79,163l3974 0c0,-87 22,-163 -80,-163l-3815 0zm1359 -7313l-224 0 0 591 -1 0c0,183 -228,270 -349,131l-345 -394 1 884 2934 0 1 -879c-159,185 -350,473 -499,473 -111,0 -200,-89 -200,-200l0 -606 -221 0c0,937 131,806 -897,806 -111,0 -200,-89 -200,-200l0 -606zm1054 2631l-1010 0c-335,0 -335,421 0,421l1010 0c335,0 335,-421 0,-421z" style="fill: #0c056d; fill-rule: nonzero;"/></g></g><g id="SvgjsG1351" featureKey="nameFeature-0" transform="matrix(1.4476109446836278,0,0,1.4476109446836278,-0.9282972781478264,120.34883136982397)" fill="#000"><path d="M13.88 15.96 l0 3.92 c0 2.52 -0.2 5.32 -0.4 8.12 c-0.16 2.04 -0.52 4.08 -1.08 6.04 c-0.4 1.32 -0.92 2.52 -1.72 3.64 c-1.72 2.44 -5 2.2 -6.68 0.36 c-0.6 -0.64 -1.04 -1.32 -1.4 -2.12 c-0.68 -1.6 -1.12 -3.24 -1.4 -4.96 c-0.68 -3.92 -0.64 -7.88 -0.4 -11.84 c0.08 -1.08 0.12 -2.16 0.16 -3.24 c0.04 -0.4 0.08 -0.8 0.24 -1.2 c0.2 -0.6 0.8 -1.04 1.36 -1 c0.6 0.04 1.16 0.48 1.32 1.12 c0.08 0.36 0.12 0.72 0.08 1.08 c-0.36 3.44 -0.28 6.92 -0.28 10.36 c0 2.2 0.4 4.36 0.96 6.48 c0.24 1 0.56 2 1.16 2.84 c0.28 0.4 0.6 0.68 1.08 0.84 c0.44 0.16 0.84 0.12 1.16 -0.24 c0.32 -0.32 0.56 -0.72 0.8 -1.12 c0.52 -0.84 0.76 -1.8 0.96 -2.76 c0.32 -1.48 0.56 -3 0.72 -4.56 c0.16 -1.96 0.16 -3.92 0.28 -5.84 c0.12 -2.04 -0.04 -4.04 0.16 -6.04 c0 -0.36 0.04 -0.76 0.12 -1.12 c0.28 -1.04 1.52 -1.44 2.32 -0.72 c0.28 0.24 0.4 0.52 0.44 0.84 c0.04 0.36 0.04 0.76 0.04 1.12 z M31.461 23.96 c0.36 -0.92 0.56 -1.88 0.56 -2.88 c0 -0.36 0 -0.76 -0.08 -1.12 c-0.12 -0.6 -0.28 -1.24 -0.56 -1.84 c-0.4 -0.92 -1.12 -1.24 -2.04 -0.92 c-0.4 0.12 -0.8 0.32 -1.12 0.6 c-0.48 0.4 -0.96 0.88 -1.32 1.4 c-0.52 0.8 -0.96 1.6 -1.32 2.48 c-1.04 2.64 -1.52 5.44 -1.76 8.28 c-0.04 0.24 0 0.48 0 0.68 s0.2 0.32 0.4 0.28 c1.08 -0.44 2.08 -1 3.04 -1.68 c1.92 -1.36 3.32 -3.12 4.2 -5.28 z M23.141 17.28 c-0.12 0.76 -0.16 1.56 -0.08 2.52 l1.16 -1.96 c0.68 -1.16 1.64 -2.12 2.8 -2.84 c1.12 -0.72 2.32 -1 3.64 -0.84 c1.44 0.2 2.48 1.04 3.2 2.24 c0.68 1.12 1 2.32 1.12 3.6 c0.16 1.84 -0.16 3.6 -0.88 5.32 c-1.36 3.2 -3.64 5.56 -6.64 7.32 l-0.96 0.56 c-0.04 0.04 -0.08 0.08 -0.08 0.12 c0.04 0.08 0.08 0.16 0.12 0.2 c0.64 0.28 1.24 0.32 1.92 0.08 c0.4 -0.12 0.76 -0.28 1.2 -0.36 c0.8 -0.16 1.4 0.2 1.64 0.92 c0.24 0.64 0 1.32 -0.64 1.68 c-1.24 0.72 -2.56 1.16 -4 0.8 c-0.28 -0.08 -0.56 -0.16 -0.84 -0.16 c-0.48 -0.08 -0.88 -0.56 -1.4 -0.32 c-0.2 0.48 0.08 0.92 0.16 1.36 c0.08 0.36 0.04 0.76 -0.12 1.08 c-0.44 0.92 -1.64 1.12 -2.36 0.4 c-0.28 -0.28 -0.48 -0.68 -0.56 -1.08 c-0.28 -1.32 -0.56 -2.64 -0.8 -3.96 c-0.36 -2.08 -0.56 -4.16 -0.68 -6.28 c-0.12 -1.56 -0.12 -3.16 -0.16 -4.76 c-0.04 -2.24 0.2 -4.48 0.32 -6.68 c0.04 -0.68 0.16 -1.32 0.28 -1.96 c0.12 -0.6 0.44 -1.04 1.04 -1.2 c1 -0.32 2 0.48 1.92 1.56 c-0.08 0.88 -0.2 1.76 -0.32 2.64 z M41.042 23.68 l0.04 0 c0.08 -2.16 0.16 -4.32 0.2 -6.44 c0.04 -0.8 0 -1.6 0.04 -2.4 c0.04 -0.72 0.12 -1.48 0.24 -2.2 c0.2 -1.08 0.8 -1.68 1.84 -1.84 c2.2 -0.32 4.36 -0.56 6.56 -0.52 c0.4 0 0.84 0.04 1.24 0.16 c0.6 0.2 1.04 0.8 0.96 1.4 c-0.04 0.6 -0.36 1.08 -0.96 1.24 c-0.44 0.12 -0.88 0.2 -1.36 0.2 c-1.64 -0.04 -3.24 0.12 -4.88 0.32 c-0.44 0.04 -0.56 0.2 -0.6 0.64 c-0.08 2 -0.2 4 -0.2 6 l0 0.56 c0 0.24 0.2 0.44 0.44 0.44 l1.36 -0.24 c0.44 -0.08 0.84 -0.04 1.24 0.16 c0.96 0.52 1.04 1.84 0.12 2.44 c-0.28 0.16 -0.6 0.28 -0.92 0.36 c-0.52 0.12 -1.08 0.2 -1.64 0.32 c-0.48 0.12 -0.68 0.28 -0.64 0.76 c0.04 1.28 0.08 2.6 0.16 3.88 c0 0.36 0.04 0.68 0.04 1 c0.08 2.2 0.32 4.36 0.56 6.56 c0.08 0.76 0.12 1.56 0.12 2.36 c0 0.92 -0.48 1.52 -1.24 1.6 s-1.44 -0.52 -1.6 -1.44 c-0.08 -0.6 -0.2 -1.2 -0.24 -1.8 c-0.16 -1.56 -0.24 -3.16 -0.4 -4.72 c-0.2 -2 -0.28 -4 -0.32 -6.04 c-0.04 -0.92 -0.12 -1.84 -0.16 -2.76 z M63.74300000000001 20.6 c1.6 0 7.64 0.08 9.08 0.08 c0.36 0 0.76 0 1.12 -0.04 c0.16 0 0.32 -0.24 0.28 -0.4 c-0.56 -1.96 -1.28 -3.8 -2.68 -5.32 c-0.36 -0.4 -0.8 -0.76 -1.28 -1.08 c-0.96 -0.6 -2 -0.64 -3.04 -0.12 c-0.72 0.36 -1.36 0.84 -1.88 1.44 c-1.16 1.4 -2 2.92 -2.56 4.64 c-0.08 0.12 -0.12 0.28 -0.08 0.4 c0 0.12 0.12 0.28 0.2 0.28 c0.28 0.08 0.56 0.12 0.84 0.12 z M63.14300000000001 23.48 l-1 0 c-0.24 0 -0.44 0.16 -0.48 0.4 c-0.12 0.4 -0.2 0.84 -0.24 1.24 c-0.32 2.56 -0.44 5.12 -0.16 7.68 c0.2 1.6 0.44 3.12 0.88 4.68 c0.08 0.24 0.16 0.52 0.16 0.8 c0.08 0.68 -0.32 1.28 -0.96 1.52 c-0.56 0.24 -1.24 0 -1.64 -0.52 c-0.16 -0.28 -0.28 -0.56 -0.4 -0.88 c-0.24 -1 -0.52 -2 -0.72 -3 c-0.28 -1.48 -0.4 -2.96 -0.4 -4.44 c0.04 -1.56 -0.04 -3.08 0.12 -4.64 c0.32 -3.64 1.2 -7.16 2.96 -10.4 c0.84 -1.52 1.88 -2.92 3.28 -4 c1.12 -0.88 2.4 -1.44 3.84 -1.52 c1.16 -0.08 2.28 0.24 3.32 0.84 c1.16 0.68 2.08 1.6 2.84 2.68 c1.16 1.6 1.92 3.4 2.48 5.28 c0.92 3.12 1.24 6.32 1.16 9.56 c-0.08 3.04 -0.56 6.04 -1.48 8.96 c-0.16 0.48 -0.36 0.96 -0.6 1.4 c-0.32 0.56 -1.04 0.84 -1.72 0.6 c-0.6 -0.24 -1.04 -0.92 -0.92 -1.56 c0.08 -0.44 0.24 -0.84 0.36 -1.2 c0.72 -2.28 1.2 -4.6 1.28 -7 c0.04 -0.72 0.16 -1.4 0.16 -2.12 c-0.04 -1.16 -0.12 -2.32 -0.24 -3.48 c-0.04 -0.52 -0.16 -0.64 -0.68 -0.64 c-1.76 -0.04 -9.48 -0.24 -11.2 -0.24 z M88.68400000000001 20.84 l-0.48 -1.16 c-0.16 0.68 -0.28 1.2 -0.32 1.68 c-0.16 1.48 -0.28 3 -0.4 4.48 c-0.16 2.36 -0.28 4.76 -0.4 7.12 c-0.04 0.6 -0.04 1.2 0 1.8 c0.04 1.2 0.08 2.36 0.16 3.52 c0 0.12 0 0.28 -0.04 0.4 c-0.08 0.76 -0.56 1.24 -1.24 1.32 c-0.72 0.08 -1.28 -0.24 -1.52 -0.96 c-0.16 -0.48 -0.24 -1 -0.24 -1.48 c-0.04 -2.56 -0.08 -5.16 0 -7.72 c0.04 -1.76 0.28 -3.52 0.44 -5.28 c0.08 -1.08 0.2 -2.16 0.28 -3.2 c0.2 -2.36 0.6 -4.64 0.96 -6.96 c0.04 -0.36 0.16 -0.72 0.28 -1.04 c0.44 -1 1.8 -1.28 2.6 -0.52 c0.24 0.24 0.48 0.56 0.64 0.88 c0.24 0.56 0.44 1.12 0.64 1.72 c1 3.12 2 6.28 3.08 9.44 c0.84 2.48 1.8 4.88 2.72 7.32 c0.08 0.2 0.16 0.36 0.28 0.52 c0 0.04 0.08 0.04 0.12 0.04 s0.16 -0.04 0.16 -0.12 c0.24 -1.64 0.44 -3.32 0.64 -4.96 c0.28 -2.08 0.52 -4.16 0.76 -6.28 c0.12 -0.96 0.2 -1.92 0.32 -2.92 l0.36 -3.48 c0.04 -0.36 0.16 -0.72 0.24 -1.08 c0.12 -0.4 0.4 -0.72 0.8 -0.96 c0.88 -0.52 2 0.04 2.04 1.08 c0.04 0.28 0 0.56 -0.04 0.84 l-0.48 4 c-0.44 3.68 -0.8 7.32 -1.24 11 c-0.32 2.56 -0.68 5.16 -1.08 7.76 c-0.04 0.36 -0.16 0.72 -0.28 1.08 c-0.24 0.64 -0.72 1 -1.36 1.04 c-0.64 0.08 -1.2 -0.2 -1.56 -0.72 c-0.24 -0.44 -0.48 -0.92 -0.68 -1.4 c-1.04 -2.6 -2.12 -5.16 -3.08 -7.8 c-1.08 -2.96 -1.88 -6.08 -3.08 -9 z M110.62500000000001 11.760000000000002 c0.16 1.04 0.2 2.12 0.32 3.2 c0 0.24 0 0.52 -0.04 0.8 c-0.12 0.56 -0.68 1.12 -1.28 1.16 s-1.08 -0.2 -1.4 -0.72 c-0.16 -0.28 -0.28 -0.6 -0.32 -0.92 c-0.12 -1.12 -0.2 -2.2 -0.28 -3.32 c0 -0.36 0.08 -0.76 0.24 -1.08 c0.44 -0.92 1.84 -1.04 2.4 -0.16 c0.2 0.28 0.32 0.68 0.36 1.04 z M119.76600000000002 14.760000000000002 c1.28 -1.2 2.84 -1.84 4.6 -1.8 c1.6 0 3 0.56 4.12 1.76 c1.24 1.32 1.52 2.96 1.24 4.68 c-0.12 0.68 -0.8 1.16 -1.4 1.16 c-0.72 0 -1.32 -0.52 -1.4 -1.28 c-0.04 -0.32 0 -0.64 -0.04 -1 c-0.08 -1.6 -1.52 -2.68 -3.12 -2.32 c-1.28 0.28 -2.32 1 -3 2.12 c-1.08 1.84 -1.24 3.76 -0.28 5.76 c0.52 1.04 1.28 1.92 2 2.84 c0.84 1 1.72 2 2.48 3.04 c0.56 0.76 1 1.56 1.48 2.36 c0.56 0.96 0.84 2 0.96 3.08 c0.32 2.72 -1.92 5.28 -4.68 5.36 c-0.76 0 -1.48 -0.2 -2.12 -0.56 c-1.48 -0.8 -2.2 -2.12 -2.4 -3.76 c-0.04 -0.36 0 -0.72 0.2 -1.04 c0.6 -0.84 1.68 -0.96 2.36 -0.08 c0.12 0.2 0.2 0.44 0.28 0.64 c0.12 0.32 0.2 0.64 0.32 0.92 c0.52 1.08 1.96 1.16 2.64 0.16 c0.4 -0.6 0.52 -1.28 0.32 -2 c-0.2 -0.76 -0.56 -1.48 -0.96 -2.16 c-0.84 -1.32 -1.84 -2.48 -2.8 -3.68 c-0.68 -0.84 -1.36 -1.68 -2 -2.52 c-0.56 -0.8 -1 -1.68 -1.28 -2.64 c-1 -3.52 -0.16 -6.56 2.48 -9.04 z M151.128 36.4 c-0.2 -2.56 -0.44 -5.12 -0.4 -7.68 c0.04 -2.76 0.2 -5.52 0.44 -8.24 c0.16 -2.08 0.48 -4.16 0.76 -6.24 c0.04 -0.28 0.12 -0.56 0.2 -0.8 c0.32 -0.8 1.04 -1.16 1.8 -0.92 c0.6 0.16 1.08 0.92 1 1.64 c-0.04 0.64 -0.16 1.32 -0.24 1.96 c-0.2 1.56 -0.32 3.12 -0.56 4.72 c-0.24 1.88 -0.24 3.8 -0.28 5.72 c-0.04 0.84 -0.16 1.68 -0.12 2.48 c0.04 1.96 0.16 3.92 0.24 5.88 l0.12 0.84 c0.12 0.88 0.08 1.08 1.24 1.04 c1.24 -0.08 2.44 -0.2 3.64 -0.32 c0.36 -0.04 0.72 -0.04 1.08 0.08 c0.64 0.2 1.08 0.68 1.08 1.28 c0.04 0.64 -0.28 1.08 -0.84 1.36 c-0.2 0.08 -0.44 0.16 -0.64 0.2 c-1.92 0.36 -3.8 0.32 -5.72 0.28 c-0.24 0 -0.48 0 -0.68 -0.08 c-0.96 -0.2 -1.6 -0.72 -1.84 -1.68 c-0.12 -0.52 -0.24 -1.04 -0.28 -1.52 z M180.469 31.880000000000003 c0.6 -1.6 0.8 -3.32 0.8 -5 c0 -2.2 -0.36 -4.24 -1.16 -6.2 c-0.48 -1.24 -1.16 -2.36 -2.12 -3.24 c-0.4 -0.4 -0.88 -0.76 -1.36 -1 c-1.08 -0.56 -2.16 -0.48 -3.16 0.2 c-0.56 0.36 -1.04 0.84 -1.4 1.36 c-0.52 0.72 -0.92 1.52 -1.2 2.4 c-1.16 3.56 -1 7.16 0.32 10.68 c0.44 1.2 1.04 2.28 1.88 3.24 c0.44 0.48 0.96 0.88 1.52 1.2 c1.28 0.76 2.52 0.6 3.64 -0.28 c0.52 -0.44 0.96 -0.92 1.32 -1.48 s0.64 -1.2 0.92 -1.88 z M184.10899999999998 24.28 l0.2 2.32 c-0.04 2.4 -0.36 4.48 -1.12 6.48 c-0.6 1.52 -1.4 2.92 -2.6 4.08 c-1.16 1.08 -2.56 1.72 -4.16 1.84 c-0.64 0.04 -1.36 -0.16 -2.04 -0.36 c-1.44 -0.4 -2.56 -1.28 -3.52 -2.36 c-1.16 -1.28 -1.92 -2.76 -2.52 -4.32 c-1.16 -3 -1.4 -6.08 -1.04 -9.24 c0.2 -1.84 0.72 -3.64 1.64 -5.28 c0.48 -0.92 1.08 -1.76 1.84 -2.48 c2.56 -2.32 5.64 -2.52 8.52 -0.32 c1.32 1.04 2.32 2.36 3.08 3.88 c0.92 1.84 1.56 3.72 1.72 5.76 z M193.93 21.68 c-0.44 1.64 -0.68 3.32 -0.64 5 c0.04 2.6 0.48 5.08 1.68 7.44 c0.56 1.12 1.32 2.12 2.28 3 c1.8 1.6 4.36 1.64 6.16 0.24 c1.16 -0.88 2 -1.96 2.64 -3.24 c0.08 -0.2 0 -0.36 -0.24 -0.4 c-0.4 -0.08 -0.84 -0.08 -1.24 -0.2 c-0.72 -0.16 -1.16 -0.68 -1.16 -1.36 s0.56 -1.32 1.32 -1.44 c0.16 -0.04 0.36 -0.04 0.56 -0.04 c1.2 0.08 2.4 0.12 3.64 0.2 c0.44 0.04 0.92 0.04 1.36 0.12 c0.44 0.04 0.84 0.12 1.24 0.28 c0.64 0.28 0.96 0.96 0.8 1.64 c-0.12 0.56 -0.68 1.04 -1.28 1.12 c-0.24 0 -0.48 0 -0.72 -0.04 c-0.72 -0.12 -1.12 0.24 -1.36 0.88 c-0.12 0.4 -0.36 0.76 -0.56 1.12 c-0.88 1.52 -1.92 2.84 -3.4 3.88 c-1.28 0.88 -2.68 1.44 -4.28 1.48 c-2.08 0.08 -3.84 -0.68 -5.36 -2 c-1.36 -1.12 -2.36 -2.52 -3.12 -4.08 c-1 -2.08 -1.6 -4.28 -1.8 -6.56 c-0.16 -1.52 -0.16 -3 0 -4.48 c0.32 -2.92 1.16 -5.68 2.72 -8.16 c0.72 -1.12 1.6 -2.04 2.64 -2.88 c1.28 -1 2.76 -1.6 4.36 -1.72 c1.32 -0.12 2.6 0.2 3.8 0.8 c0.96 0.48 1.8 1.12 2.56 1.88 c0.24 0.24 0.44 0.52 0.6 0.8 c0.32 0.6 0.16 1.32 -0.4 1.76 c-0.4 0.36 -1.2 0.4 -1.68 0.08 c-0.2 -0.12 -0.36 -0.28 -0.56 -0.44 c-0.32 -0.32 -0.68 -0.64 -1.04 -0.92 c-1.68 -1.24 -3.44 -1.32 -5.24 -0.28 c-1 0.6 -1.76 1.44 -2.4 2.36 c-0.88 1.24 -1.48 2.68 -1.88 4.16 z M231.67100000000002 31.880000000000003 c0.6 -1.6 0.8 -3.32 0.8 -5 c0 -2.2 -0.36 -4.24 -1.16 -6.2 c-0.48 -1.24 -1.16 -2.36 -2.12 -3.24 c-0.4 -0.4 -0.88 -0.76 -1.36 -1 c-1.08 -0.56 -2.16 -0.48 -3.16 0.2 c-0.56 0.36 -1.04 0.84 -1.4 1.36 c-0.52 0.72 -0.92 1.52 -1.2 2.4 c-1.16 3.56 -1 7.16 0.32 10.68 c0.44 1.2 1.04 2.28 1.88 3.24 c0.44 0.48 0.96 0.88 1.52 1.2 c1.28 0.76 2.52 0.6 3.64 -0.28 c0.52 -0.44 0.96 -0.92 1.32 -1.48 s0.64 -1.2 0.92 -1.88 z M235.311 24.28 l0.2 2.32 c-0.04 2.4 -0.36 4.48 -1.12 6.48 c-0.6 1.52 -1.4 2.92 -2.6 4.08 c-1.16 1.08 -2.56 1.72 -4.16 1.84 c-0.64 0.04 -1.36 -0.16 -2.04 -0.36 c-1.44 -0.4 -2.56 -1.28 -3.52 -2.36 c-1.16 -1.28 -1.92 -2.76 -2.52 -4.32 c-1.16 -3 -1.4 -6.08 -1.04 -9.24 c0.2 -1.84 0.72 -3.64 1.64 -5.28 c0.48 -0.92 1.08 -1.76 1.84 -2.48 c2.56 -2.32 5.64 -2.52 8.52 -0.32 c1.32 1.04 2.32 2.36 3.08 3.88 c0.92 1.84 1.56 3.72 1.72 5.76 z"/></g><g id="SvgjsG1352" featureKey="sloganFeature-0" transform="matrix(0.6272225607177419,0,0,0.6272225607177419,88.85456615435339,194.42902765836058)" fill="#000"><path d="M1.8262 20 l0 -14.111 l5.1074 0 c4.502 0 6.7285 2.832 6.7285 7.0508 c0 4.2285 -2.2266 7.0605 -6.7285 7.0605 l-5.1074 0 z M4.7559 17.4121 l2.0313 0 c2.5977 0 3.7891 -1.6211 3.7891 -4.4727 s-1.1914 -4.4727 -3.7891 -4.4727 l-2.0313 0 l0 8.9453 z M26.860585937499998 8.467 l-5.2344 0 l0 3.2031 l4.6387 0 l0 2.5488 l-4.6387 0 l0 3.1934 l5.2344 0 l0 2.5879 l-8.1836 0 l0 -14.111 l8.1836 0 l0 2.5781 z M41.123265625 5.888999999999999 l3.1152 0 l-5.2148 14.111 l-3.2227 0 l-5.1855 -14.111 l3.1055 0 l3.7012 10.693 z M56.8117578125 8.467 l-5.2344 0 l0 3.2031 l4.6387 0 l0 2.5488 l-4.6387 0 l0 3.1934 l5.2344 0 l0 2.5879 l-8.1836 0 l0 -14.111 l8.1836 0 l0 2.5781 z M65.0293375 17.4121 l4.4238 0 l0 2.5879 l-7.3535 0 l0 -14.111 l2.9297 0 l0 11.523 z M80.2099890625 20.19531 c-4.1504 0 -7.2168 -2.832 -7.2168 -7.2559 c0 -4.4336 3.0664 -7.2461 7.2168 -7.2461 c4.1406 0 7.207 2.8125 7.207 7.2461 c0 4.4238 -3.0664 7.2559 -7.207 7.2559 z M80.2099890625 17.5098 c2.4316 0 4.2969 -1.709 4.2969 -4.5703 c0 -2.8516 -1.8652 -4.5508 -4.2969 -4.5508 s-4.2969 1.6992 -4.2969 4.5508 c0 2.8613 1.8652 4.5703 4.2969 4.5703 z M98.251940625 5.888999999999999 c2.7637 0 4.4824 2.0508 4.4824 4.5605 c0 2.5684 -1.7188 4.4922 -4.4824 4.4922 l-2.9395 0 l0 5.0586 l-2.9297 0 l0 -14.111 l5.8691 0 z M97.763640625 12.4902 c1.4648 0 2.1484 -0.81055 2.1484 -2.0801 c0 -1.2207 -0.68359 -2.0703 -2.1484 -2.0703 l-2.4512 0 l0 4.1504 l2.4512 0 z M107.4658484375 20 l0 -14.111 l2.9297 0 l0 14.111 l-2.9297 0 z M125.947421875 5.888999999999999 l2.9199 0 l0 14.111 l-3.3887 0 l-6.25 -10.088 l0 10.088 l-2.9199 0 l0 -14.111 l3.3496 0 l6.2891 10.029 l0 -10.029 z M140.8935671875 20.19531 c-4.0723 0 -7.0703 -2.8125 -7.0703 -7.2168 c0 -4.4629 3.0664 -7.2852 7.2168 -7.2852 c2.7246 0 4.9805 1.2012 6.2109 3.3203 l-2.5684 1.3672 c-0.74219 -1.4453 -2.0703 -2.1387 -3.6426 -2.1387 c-2.4414 0 -4.2773 1.6797 -4.2773 4.668 c0 2.8809 1.7188 4.7363 4.3848 4.7363 c1.8066 0 3.4668 -0.89844 3.8672 -2.959 l-3.8574 0 l0 -2.3535 l6.6309 0 l0 7.666 l-2.3047 0 l0 -1.9531 c-0.9082 1.3379 -2.4316 2.1484 -4.5898 2.1484 z M168.88135156250002 8.467 l-5.3711 0 l0 3.2031 l4.6387 0 l0 2.5488 l-4.6387 0 l0 5.7813 l-2.9492 0 l0 -14.111 l8.3203 0 l0 2.5781 z M179.902371875 20.19531 c-4.1504 0 -7.2168 -2.832 -7.2168 -7.2559 c0 -4.4336 3.0664 -7.2461 7.2168 -7.2461 c4.1406 0 7.207 2.8125 7.207 7.2461 c0 4.4238 -3.0664 7.2559 -7.207 7.2559 z M179.902371875 17.5098 c2.4316 0 4.2969 -1.709 4.2969 -4.5703 c0 -2.8516 -1.8652 -4.5508 -4.2969 -4.5508 s-4.2969 1.6992 -4.2969 4.5508 c0 2.8613 1.8652 4.5703 4.2969 4.5703 z M199.5263234375 20 l-3.6719 -6.2109 l-0.84961 0 l0 6.2109 l-2.9297 0 l0 -14.111 l5.1172 0 c3.1934 0 4.541 1.8848 4.541 4.2188 c0 1.8945 -1.0742 3.125 -2.9883 3.5352 l4.248 6.3574 l-3.4668 0 z M195.0049234375 8.32 l0 3.3691 l1.7285 0 c1.5625 0 2.1973 -0.66406 2.1973 -1.6797 c0 -1.0059 -0.63477 -1.6895 -2.1973 -1.6895 l-1.7285 0 z M223.19775781250002 8.467 l-5.3711 0 l0 3.2031 l4.6387 0 l0 2.5488 l-4.6387 0 l0 5.7813 l-2.9492 0 l0 -14.111 l8.3203 0 l0 2.5781 z M233.193378125 20.19531 c-3.0957 0 -5.5176 -1.582 -5.5176 -5.1367 l0 -9.1699 l2.9297 0 l0 8.7695 c0 2.1484 1.1426 2.9492 2.5879 2.9492 c1.4551 0 2.6074 -0.81055 2.6074 -2.9492 l0 -8.7695 l2.9297 0 l0 9.1699 c0 3.5547 -2.4316 5.1367 -5.5371 5.1367 z M253.9991796875 5.888999999999999 l2.9199 0 l0 14.111 l-3.3887 0 l-6.25 -10.088 l0 10.088 l-2.9199 0 l0 -14.111 l3.3496 0 l6.2891 10.029 l0 -10.029 z"/></g>
			</g>
		</svg>
	